<?xml version="1.0" encoding="utf-8"?>
<!-- Generator: Adobe Illustrator 19.0.0, SVG Export Plug-In . SVG Version: 6.00 Build 0)  -->
<svg version="1.1" id="Layer_1" focusable="false" xmlns="http://www.w3.org/2000/svg" xmlns:xlink="http://www.w3.org/1999/xlink"
	 x="0px" y="0px" viewBox="-246.4 141 640.1 512" style="enable-background:new -246.4 141 640.1 512;" xml:space="preserve">
<g>
	<path d="M387,598.5c-35.9-28-71.9-55.9-107.8-83.9l-38.7-29.8C259.8,454.9,271,419.3,271,381c0-13.1-11.8-25.2-32-35.3V189h16
		c8.8,0,16-7.2,16-16v-16c0-8.8-7.2-16-16-16H-97c-8.8,0-16,7.2-16,16v16c0,8.8,7.2,16,16,16h16v47.7l-17.8-13.7
		c-33.3-26-66.6-51.8-100-77.7c-7.8-6-17.6-5.7-23.5,1.5c-7.3,8.8-14.3,17.9-21.1,27.2c-3.8,5.2-4.1,10.8-0.3,16.6
		c3.5,5.3,9,8.2,13.8,11.9c29.6,22.8,59.3,45.4,88.9,68.2c20,15.5,40.1,31,60.1,46.4v0.5l54.9,42.4c0.1,0,0.3-0.1,0.4-0.1
		c22.4,17.3,44.9,34.7,67.3,52c-0.2,0-0.3,0-0.5,0l156,120.4c0,0,0.1-0.1,0.1-0.1c25.9,20,51.7,40,77.6,60
		c22.7,17.5,45.6,34.7,67.6,53.1c11.2,9.4,20.9,9.7,28.5,0.9c6.8-8,13.3-16.3,19.4-24.8C395.9,613.5,394.3,604.3,387,598.5z
		 M-33,213c0-4.4,3.6-8,8-8h48c4.4,0,8,3.6,8,8v16c0,4.4-3.6,8-8,8h-48c-4.4,0-8-3.6-8-8V213z M79,349c77.1,0,139.6,14.3,139.6,32
		c0,12.4-30.8,23.2-75.7,28.5l-78.1-60.3C69.4,349.1,74.2,349,79,349z"/>
	<path d="M-113,381c0,67.2,34.6,126.2,86.8,160.5l-21.4,70.2C-53.9,632.2-38.5,653-17,653h192c18.3,0,32.3-15.2,32-32.3
		C100.7,538.5-5.6,456.3-111.9,374.1C-112.6,376.4-113,378.7-113,381z"/>
</g>
</svg>
